<?xml version="1.0" encoding="utf-8"?>
<!-- Generator: Adobe Illustrator 16.0.0, SVG Export Plug-In . SVG Version: 6.00 Build 0)  -->
<!DOCTYPE svg PUBLIC "-//W3C//DTD SVG 1.1//EN" "http://www.w3.org/Graphics/SVG/1.1/DTD/svg11.dtd">
<svg version="1.1" id="Capa_1" xmlns="http://www.w3.org/2000/svg" xmlns:xlink="http://www.w3.org/1999/xlink" x="0px" y="0px"
	 width="248px" height="261.001px" viewBox="0 0 248 261.001" enable-background="new 0 0 248 261.001" xml:space="preserve">
<g>
	<g>
		<path fill="#003970" d="M123.046,4.952v5.04c47.698,0.322,86.411,39.217,86.411,86.994c0,47.977-39.033,87.01-87.004,87.01
			c-33.448,0-62.515-18.981-77.064-46.728h-5.64c14.966,30.616,46.391,51.768,82.704,51.768c50.75,0,92.047-41.292,92.047-92.05
			C214.5,46.43,173.529,5.274,123.046,4.952z"/>
	</g>
	<g>
		<path fill="#003970" d="M151.756,118.472l-33.875,8.209c1.684,5.522-1.189,11.452-6.657,13.495
			c-3.381,1.268-6.987,0.763-9.811-1.05l-26.895-13.89c-2.032-0.75-1.38-5.199,1.987-3.844l27.799,14.342
			c7.134,3.604,14.433-7.325,5.664-12.432l-36.951-19.01c-7.064-4.168-43.945,5.066-33.747,32.023
			c0.952,2.551,3.789,3.838,6.334,2.885c5.461-3.794,13.812-3.633,16.637-2.252l29.674,15.507c1.76,1.15,4.022,1.476,6.139,0.684
			l58.484-21.866C165.531,127.021,159.477,115.591,151.756,118.472z"/>
	</g>
</g>
<path fill="#003970" d="M163.197,40.341c-0.003-1.569-0.909-3.005-2.348-3.719l-39.904-19.786c-0.883-0.448-1.932-0.448-2.813,0
	L78.071,36.881c-1.436,0.718-2.336,2.156-2.334,3.725l0.075,45.327c0,1.119,0.648,2.141,1.675,2.646l40.022,19.959
	c1.237,0.617,2.705,0.615,3.94-0.003l40.141-20.089c1.027-0.5,1.675-1.526,1.675-2.644L163.197,40.341z M119.54,22.813l13.585,6.86
	l-5.077,2.564l-8.494,4.186l-13.477-6.813L119.54,22.813z M119.54,66.056l13.647,6.896l-13.647,6.72l-13.651-6.72L119.54,66.056z
	 M102.258,67.968v-16.38l14.227-7.004v13.43v2.772L102.258,67.968z M96.151,91.119l-14.232-7.008V67.671l14.232,7.007V91.119z
	 M96.151,52.829v15.199l-14.232-7.008V44.583l14.232,7.004V52.829z M85.553,39.718l13.654-6.893l13.647,6.893l-13.647,6.723
	L85.553,39.718z M116.485,85.801v15.328v0.129l-14.227-7.007v-0.125v-3.007V77.816l14.227,7.005V85.801z M136.819,90.986v3.139
	v0.125l-14.226,7.007v-0.128V85.933v-1.112l14.226-7.004V90.986z M136.819,68.1l-14.226-7.185v-2.901V44.713l14.226,7.007V68.1z
	 M126.222,39.849l13.648-6.896l13.653,6.896L139.87,46.57L126.222,39.849z M157.157,83.979l-14.231,7.011V74.808l14.231-7.008
	V83.979z M157.157,61.147l-14.231,7.01V52.829V51.72l12.316-6.067l1.916-0.944V61.147z"/>
<g>
	<path fill="#003970" d="M30.484,248.336l7.664-9.492c1.688,1.923,3.938,3.633,6.75,5.133c2.999,1.642,5.695,2.461,8.086,2.461
		c4.968,0,7.453-1.652,7.453-4.957s-3.704-5.52-11.109-6.645c-13.032-2.203-19.547-7.898-19.547-17.086
		c0-4.546,1.733-8.227,5.203-11.039c3.421-2.766,7.945-4.148,13.57-4.148c6.328,0,12.468,1.36,18.422,4.078
		c1.171,0.563,2.062,1.055,2.672,1.477c0.375,0.188,0.703,0.398,0.984,0.633l-6.82,9c-4.078-3.14-9.165-4.711-15.258-4.711
		c-4.407,0-6.609,1.36-6.609,4.078c0,2.719,3.539,4.641,10.617,5.766c13.078,2.204,19.617,8.321,19.617,18.352
		c0,4.735-1.617,8.462-4.852,11.18c-3.375,2.859-8.156,4.289-14.344,4.289c-7.126,0-13.547-1.874-19.266-5.625
		c-1.125-0.749-1.946-1.406-2.461-1.969C30.977,248.875,30.718,248.617,30.484,248.336z"/>
	<path fill="#003970" d="M119.359,248.969c-4.313,5.157-10.758,7.734-19.336,7.734c-7.548,0-13.758-2.695-18.633-8.086
		c-4.735-5.156-7.102-11.484-7.102-18.984c0-7.499,2.366-13.852,7.102-19.055c4.875-5.344,11.085-8.016,18.633-8.016
		c5.437,0,10.547,1.431,15.328,4.289c1.688,1.031,2.813,1.828,3.375,2.391c0.187,0.235,0.397,0.446,0.633,0.633l-6.258,9.352
		c-4.829-4.687-9.188-7.031-13.078-7.031c-3.844,0-7.008,1.734-9.492,5.203c-2.391,3.329-3.586,7.407-3.586,12.234
		c0,4.828,1.195,8.906,3.586,12.234c2.484,3.47,5.648,5.203,9.492,5.203c4.593,0,8.953-2.461,13.078-7.383L119.359,248.969z"/>
	<path fill="#003970" d="M133.281,246.789L130.117,256l-6.328-0.141L117.391,256v-0.211l0.141-0.141l18.914-52.383l5.977,0.141h6.82
		L167.875,256l-6.398-0.141L155.148,256l-3.164-9.211H133.281z M136.445,237.719h12.375l-6.188-17.859L136.445,237.719z"/>
	<path fill="#003970" d="M212.664,203.266l6.328,0.141l6.328-0.141L214,256h-11.32l-7.453-30.164L187.492,256h-11.391
		l-10.898-52.594l0.07-0.141l6.328,0.141l6.328-0.141l5.063,27.844l6.609-27.844h11.391l6.891,27.844L212.664,203.266z"/>
</g>
<g>
</g>
<g>
</g>
<g>
</g>
<g>
</g>
<g>
</g>
<g>
</g>
</svg>
